<?xml version="1.0" standalone="no"?>
<!DOCTYPE svg PUBLIC "-//W3C//DTD SVG 20010904//EN"
 "http://www.w3.org/TR/2001/REC-SVG-20010904/DTD/svg10.dtd">
<svg version="1.0" xmlns="http://www.w3.org/2000/svg"
 width="663.000000pt" height="110.000000pt" viewBox="0 0 663.000000 110.000000"
 preserveAspectRatio="xMidYMid meet">

<g transform="translate(0.000000,110.000000) scale(0.100000,-0.100000)"
fill="#000000" stroke="none">
<path d="M3223 775 c-123 -124 -223 -230 -223 -236 0 -6 100 -112 223 -235
211 -213 224 -224 260 -224 21 0 49 7 62 16 29 19 48 76 35 108 -4 12 -72 86
-149 165 -120 121 -144 141 -164 136 -12 -4 -26 -11 -32 -16 -5 -5 -14 -9 -19
-9 -6 0 71 82 171 183 100 100 186 194 192 209 14 36 -3 92 -34 112 -13 9 -41
16 -62 16 -35 0 -49 -12 -260 -225z"/>
<path d="M4113 982 c-14 -10 -61 -106 -123 -252 -56 -129 -110 -253 -120 -275
-68 -146 -104 -236 -107 -275 -4 -39 -1 -49 23 -73 18 -18 37 -27 60 -27 57 0
79 17 109 84 14 33 35 79 45 101 10 22 49 110 85 195 37 85 77 178 89 205 65
145 96 222 96 238 0 27 -28 75 -49 87 -30 15 -83 12 -108 -8z"/>
<path d="M4476 974 c-20 -21 -26 -36 -26 -72 l0 -46 185 -185 c101 -101 183
-186 181 -188 -2 -2 -19 5 -37 16 l-32 20 -148 -150 c-84 -86 -149 -159 -151
-173 -6 -29 16 -84 40 -102 9 -7 35 -14 57 -14 38 0 46 7 270 230 l230 230
-230 230 c-225 225 -232 230 -272 230 -30 0 -47 -7 -67 -26z"/>
<path d="M268 973 c6 -2 18 -2 25 0 6 3 1 5 -13 5 -14 0 -19 -2 -12 -5z"/>
<path d="M2778 973 c7 -3 16 -2 19 1 4 3 -2 6 -13 5 -11 0 -14 -3 -6 -6z"/>
<path d="M2816 930 c5 -8 11 -181 14 -385 l6 -370 1 372 c2 334 0 373 -14 385
-14 11 -15 11 -7 -2z"/>
<path d="M116 915 c4 -8 8 -15 10 -15 2 0 4 7 4 15 0 8 -4 15 -10 15 -5 0 -7
-7 -4 -15z"/>
<path d="M2519 825 c-31 -17 -47 -51 -55 -119 -8 -63 0 -80 91 -200 57 -76 65
-92 65 -131 0 -44 -18 -75 -44 -75 -23 0 -35 24 -38 75 -3 48 -4 50 -35 53
l-33 3 0 -66 c0 -63 2 -69 34 -101 41 -41 87 -45 137 -11 38 26 47 49 48 134
l1 63 -75 101 c-66 90 -75 107 -75 145 0 25 6 49 16 58 18 19 20 19 45 6 15
-9 19 -22 19 -65 0 -58 3 -61 49 -48 22 6 23 9 19 71 -4 58 -8 68 -36 93 -36
33 -89 38 -133 14z"/>
<path d="M5340 535 l0 -305 40 0 40 0 1 233 c1 127 4 218 8 202 4 -17 20 -121
36 -233 l29 -202 63 0 63 0 0 305 0 305 -34 0 -33 0 -7 -61 c-3 -34 -6 -136
-6 -227 0 -91 -2 -163 -4 -161 -2 2 -11 58 -20 124 -9 66 -21 147 -26 180 -5
33 -12 79 -16 103 l-6 42 -64 0 -64 0 0 -305z"/>
<path d="M5797 820 c-40 -31 -47 -77 -47 -293 0 -219 6 -249 59 -280 36 -21
61 -21 105 0 60 28 66 54 66 287 0 230 -7 263 -59 290 -42 22 -93 20 -124 -4z
m92 -64 c8 -9 11 -78 9 -227 l-3 -214 -30 0 -30 0 -3 214 c-2 214 1 241 33
241 7 0 18 -6 24 -14z"/>
<path d="M6102 778 c4 -35 15 -110 23 -168 8 -58 22 -154 30 -215 25 -176 21
-165 64 -165 l38 0 18 138 c10 75 21 143 25 151 4 7 12 -24 19 -70 7 -46 17
-114 22 -151 l11 -68 38 0 c43 0 36 -24 65 210 8 69 22 172 30 230 26 186 27
171 -14 168 -41 -3 -40 0 -61 -183 -15 -122 -25 -145 -34 -79 -4 27 -14 97
-23 157 l-16 107 -38 0 -37 0 -11 -87 c-7 -49 -14 -108 -17 -133 -3 -25 -8
-53 -11 -64 -8 -28 -23 0 -23 44 0 27 -17 133 -29 185 0 3 -1 16 -1 30 0 22
-4 25 -38 25 l-39 0 9 -62z"/>
<path d="M252 533 l3 -298 38 -3 37 -3 1 233 1 233 18 -100 c10 -55 25 -149
34 -210 25 -164 21 -155 60 -155 37 0 34 -8 51 110 25 161 56 345 60 349 3 2
5 -100 5 -227 l0 -232 35 0 35 0 0 300 0 300 -64 0 c-75 0 -66 16 -91 -165 -9
-60 -18 -123 -22 -140 l-6 -30 -8 30 c-5 16 -18 92 -30 167 l-22 138 -68 0
-69 0 2 -297z"/>
<path d="M823 820 c-13 -5 -32 -24 -43 -42 -18 -30 -20 -51 -20 -241 0 -236 6
-263 63 -290 45 -22 65 -21 100 1 56 38 56 39 57 284 l0 228 -27 30 c-31 34
-90 48 -130 30z m75 -72 c9 -9 12 -72 12 -220 l0 -208 -27 -6 c-50 -13 -55 8
-49 229 3 108 8 202 11 207 8 14 38 13 53 -2z"/>
<path d="M1110 530 l0 -300 60 0 c68 0 116 19 145 58 18 25 20 45 23 227 2
176 1 204 -15 235 -29 55 -75 80 -149 80 l-64 0 0 -300z m139 206 c8 -9 11
-74 9 -212 -3 -198 -3 -198 -27 -210 -49 -25 -51 -19 -51 217 l0 219 29 0 c16
0 34 -6 40 -14z"/>
<path d="M1460 582 c0 -279 4 -299 74 -335 62 -32 140 1 167 71 5 13 9 133 9
268 l0 244 -40 0 -40 0 0 -249 c0 -214 -2 -252 -16 -265 -20 -20 -38 -20 -58
0 -14 13 -16 51 -16 265 l0 249 -40 0 -40 0 0 -248z"/>
<path d="M1830 530 l0 -300 95 0 95 0 0 35 0 34 -57 3 -58 3 -3 263 -2 262
-35 0 -35 0 0 -300z"/>
<path d="M2150 530 l0 -300 96 0 95 0 -3 37 -3 38 -57 3 -58 3 0 119 0 120 61
0 60 0 -3 38 -3 37 -58 3 -58 3 3 62 3 62 58 3 57 3 0 34 0 35 -95 0 -95 0 0
-300z"/>
<path d="M147 103 c-3 -5 14 -9 36 -10 34 -1 37 0 17 7 -33 11 -48 12 -53 3z"/>
<path d="M240 90 c0 -12 2516 -14 2523 -2 3 4 -564 8 -1259 10 -839 1 -1264
-1 -1264 -8z"/>
</g>
</svg>
