<?xml version="1.0" standalone="no"?>
<!DOCTYPE svg PUBLIC "-//W3C//DTD SVG 20010904//EN"
 "http://www.w3.org/TR/2001/REC-SVG-20010904/DTD/svg10.dtd">
<svg version="1.0" xmlns="http://www.w3.org/2000/svg"
 width="16.000000pt" height="16.000000pt" viewBox="0 0 16.000000 16.000000"
 preserveAspectRatio="xMidYMid meet">

<g transform="translate(0.000000,16.000000) scale(0.100000,-0.100000)"
fill="#000000" stroke="none">
<path d="M15 100 c-17 -19 -17 -21 0 -40 10 -11 23 -20 28 -20 6 0 2 9 -8 20
-17 19 -17 21 0 40 10 11 14 20 8 20 -5 0 -18 -9 -28 -20z"/>
<path d="M75 83 c-13 -32 -14 -55 0 -42 13 13 34 79 25 79 -5 0 -17 -16 -25
-37z"/>
<path d="M133 103 c15 -16 15 -18 0 -35 -19 -22 -10 -36 12 -18 25 21 12 70
-19 70 -6 0 -3 -8 7 -17z"/>
</g>
</svg>
